<svg xmlns="http://www.w3.org/2000/svg" width="512" height="512" viewBox="0 0 512 512">
  <defs>
    <linearGradient id="bg" x1="8%" y1="4%" x2="92%" y2="96%">
      <stop offset="0%" stop-color="#22E0C0"/>
      <stop offset="50%" stop-color="#0DA490"/>
      <stop offset="100%" stop-color="#055349"/>
    </linearGradient>
    <radialGradient id="sheen" cx="32%" cy="16%" r="70%">
      <stop offset="0%" stop-color="#ffffff" stop-opacity="0.20"/>
      <stop offset="60%" stop-color="#ffffff" stop-opacity="0.04"/>
      <stop offset="100%" stop-color="#ffffff" stop-opacity="0"/>
    </radialGradient>
    <radialGradient id="vignette" cx="50%" cy="58%" r="75%">
      <stop offset="60%" stop-color="#000000" stop-opacity="0"/>
      <stop offset="100%" stop-color="#04211C" stop-opacity="0.22"/>
    </radialGradient>
    <filter id="lift" x="-50%" y="-50%" width="200%" height="200%">
      <feDropShadow dx="0" dy="9" stdDeviation="12" flood-color="#03231E" flood-opacity="0.5"/>
    </filter>
  </defs>

  <rect width="512" height="512" fill="url(#bg)"/>
  <rect width="512" height="512" fill="url(#vignette)"/>
  <rect width="512" height="512" fill="url(#sheen)"/>

  <g transform="translate(96 176) scale(1.3333)" filter="url(#lift)" stroke="#0A2C26" stroke-width="1.4" stroke-linejoin="round">
    <rect x="18" y="70" width="120" height="42" fill="#ffffff"/>
    <rect x="18" y="64" width="6" height="8" fill="#ffffff"/>
    <rect x="30" y="64" width="6" height="8" fill="#ffffff"/>
    <rect x="42" y="64" width="6" height="8" fill="#ffffff"/>
    <rect x="54" y="64" width="6" height="8" fill="#ffffff"/>
    <rect x="66" y="64" width="6" height="8" fill="#ffffff"/>
    <rect x="78" y="64" width="6" height="8" fill="#ffffff"/>
    <rect x="90" y="64" width="6" height="8" fill="#ffffff"/>
    <rect x="102" y="64" width="6" height="8" fill="#ffffff"/>
    <rect x="114" y="64" width="6" height="8" fill="#ffffff"/>
    <rect x="126" y="64" width="6" height="8" fill="#ffffff"/>
    <rect x="10" y="58" width="10" height="54" fill="#ffffff"/>
    <polygon points="10,58 15,46 20,58" fill="#ffffff"/>
    <rect x="150" y="30" width="26" height="82" fill="#ffffff"/>
    <rect x="146" y="24" width="34" height="8" fill="#ffffff"/>
    <polygon points="150,24 163,4 176,24" fill="#ffffff"/>
    <circle cx="163" cy="46" r="7" fill="#0D8A7A" stroke="#ffffff" stroke-width="2"/>
    <line x1="163" y1="4" x2="163" y2="-6" stroke="#ffffff" stroke-width="2"/>
    <rect x="190" y="80" width="14" height="32" fill="#ffffff"/>
    <polygon points="190,80 197,66 204,80" fill="#ffffff"/>
    <line x1="0" y1="112" x2="240" y2="112" stroke="#ffffff" stroke-width="2"/>
  </g>
</svg>
