<svg xmlns="http://www.w3.org/2000/svg" width="512" height="512" viewBox="0 0 512 512">
  <defs>
    <linearGradient id="bg" x1="8%" y1="4%" x2="92%" y2="96%">
      <stop offset="0%" stop-color="#6C63F1"/>
      <stop offset="50%" stop-color="#4F46E5"/>
      <stop offset="100%" stop-color="#332DA1"/>
    </linearGradient>
    <radialGradient id="sheen" cx="30%" cy="14%" r="70%">
      <stop offset="0%" stop-color="#ffffff" stop-opacity="0.22"/>
      <stop offset="100%" stop-color="#ffffff" stop-opacity="0"/>
    </radialGradient>
    <filter id="lift" x="-30%" y="-30%" width="160%" height="170%">
      <feDropShadow dx="0" dy="10" stdDeviation="12" flood-color="#171248" flood-opacity="0.45"/>
    </filter>
  </defs>
  <rect width="512" height="512" fill="url(#bg)"/>
  <rect width="512" height="512" fill="url(#sheen)"/>
  <!-- A speech bubble with a tick: a clear answer. -->
  <path filter="url(#lift)" fill="#ffffff" d="M184 104h144a72 72 0 0 1 72 72v80a72 72 0 0 1-72 72H264l-72 64v-64h-8a72 72 0 0 1-72-72v-80a72 72 0 0 1 72-72z"/>
  <path fill="none" stroke="#4F46E5" stroke-width="44" stroke-linecap="round" stroke-linejoin="round" d="M190 218l50 50 94-96"/>
</svg>
